<svg width="250" height="250" viewBox="0 0 250 250" fill="none" xmlns="http://www.w3.org/2000/svg">
<path d="M71.25 60C68.2663 60 65.4048 61.1853 63.295 63.295C61.1853 65.4048 60 68.2663 60 71.25V168.75C60 171.734 61.1853 174.595 63.295 176.705C65.4048 178.815 68.2663 180 71.25 180H168.75C171.734 180 174.595 178.815 176.705 176.705C178.815 174.595 180 171.734 180 168.75V71.25C180 68.2663 178.815 65.4048 176.705 63.295C174.595 61.1853 171.734 60 168.75 60H71.25Z" fill="#444444"/>
<path d="M45 7.5C40.0754 7.5 35.1991 8.46997 30.6494 10.3545C26.0997 12.2391 21.9657 15.0013 18.4835 18.4835C11.4509 25.5161 7.5 35.0544 7.5 45V195C7.5 204.946 11.4509 214.484 18.4835 221.517C21.9657 224.999 26.0997 227.761 30.6494 229.645C35.1991 231.53 40.0754 232.5 45 232.5H195C204.946 232.5 214.484 228.549 221.517 221.517C228.549 214.484 232.5 204.946 232.5 195V45C232.5 40.0754 231.53 35.1991 229.645 30.6494C227.761 26.0997 224.999 21.9657 221.517 18.4835C218.034 15.0013 213.9 12.2391 209.351 10.3545C204.801 8.46997 199.925 7.5 195 7.5H45ZM22.5 45C22.5 39.0326 24.8705 33.3097 29.0901 29.0901C33.3097 24.8705 39.0326 22.5 45 22.5H195C200.967 22.5 206.69 24.8705 210.91 29.0901C215.129 33.3097 217.5 39.0326 217.5 45V195C217.5 200.967 215.129 206.69 210.91 210.91C206.69 215.129 200.967 217.5 195 217.5H45C39.0326 217.5 33.3097 215.129 29.0901 210.91C24.8705 206.69 22.5 200.967 22.5 195V45Z" fill="#5b5757"/>
</svg>
