<svg width="156" height="242" viewBox="0 0 156 242" fill="none" xmlns="http://www.w3.org/2000/svg">
<g id="Frame 2610372">
<path id="Vector" d="M78 165.579C90.1951 165.562 101.886 160.413 110.509 151.26C119.133 142.107 123.984 129.698 124 116.754V48.8246C124 35.8755 119.154 23.4568 110.527 14.3004C101.9 5.144 90.2 0 78 0C65.8 0 54.0998 5.144 45.4731 14.3004C36.8464 23.4568 32 35.8755 32 48.8246V116.754C32.0159 129.698 36.8674 142.107 45.4906 151.26C54.1139 160.413 65.8049 165.562 78 165.579ZM44 48.8246C44 39.2535 47.5821 30.0745 53.9584 23.3067C60.3346 16.5389 68.9826 12.7368 78 12.7368C87.0174 12.7368 95.6654 16.5389 102.042 23.3067C108.418 30.0745 112 39.2535 112 48.8246V116.754C112 126.325 108.418 135.504 102.042 142.272C95.6654 149.04 87.0174 152.842 78 152.842C68.9826 152.842 60.3346 149.04 53.9584 142.272C47.5821 135.504 44 126.325 44 116.754V48.8246ZM84 199.279V235.632C84 237.321 83.3679 238.94 82.2426 240.135C81.1174 241.329 79.5913 242 78 242C76.4087 242 74.8826 241.329 73.7574 240.135C72.6321 238.94 72 237.321 72 235.632V199.279C52.4209 197.653 34.1377 188.257 20.794 172.963C7.4502 157.668 0.0256955 137.599 0 116.754C0 115.065 0.63214 113.446 1.75736 112.251C2.88258 111.057 4.4087 110.386 6 110.386C7.5913 110.386 9.11742 111.057 10.2426 112.251C11.3679 113.446 12 115.065 12 116.754C12 135.333 18.9536 153.152 31.331 166.289C43.7084 179.426 60.4957 186.807 78 186.807C95.5043 186.807 112.292 179.426 124.669 166.289C137.046 153.152 144 135.333 144 116.754C144 115.065 144.632 113.446 145.757 112.251C146.883 111.057 148.409 110.386 150 110.386C151.591 110.386 153.117 111.057 154.243 112.251C155.368 113.446 156 115.065 156 116.754C155.974 137.599 148.55 157.668 135.206 172.963C121.862 188.257 103.579 197.653 84 199.279Z" fill="#5b5757"/>
</g>
</svg>
